<svg xmlns="http://www.w3.org/2000/svg" xmlns:xlink="http://www.w3.org/1999/xlink" id="visual" viewBox="0 0 2000 384" width="2000" height="384" version="1.1"><rect x="0" y="0" width="2000" height="384" fill="#060d18"/><path d="M0 122L27.8 126.3C55.7 130.7 111.3 139.3 166.8 133.7C222.3 128 277.7 108 333.2 101C388.7 94 444.3 100 500 100.7C555.7 101.3 611.3 96.7 666.8 110C722.3 123.3 777.7 154.7 833.2 153.7C888.7 152.7 944.3 119.3 1000 114C1055.7 108.7 1111.3 131.3 1166.8 142C1222.3 152.7 1277.7 151.3 1333.2 136.7C1388.7 122 1444.3 94 1500 98.3C1555.7 102.7 1611.3 139.3 1666.8 140.7C1722.3 142 1777.7 108 1833.2 90.3C1888.7 72.7 1944.3 71.3 1972.2 70.7L2000 70L2000 385L1972.2 385C1944.3 385 1888.7 385 1833.2 385C1777.7 385 1722.3 385 1666.8 385C1611.3 385 1555.7 385 1500 385C1444.3 385 1388.7 385 1333.2 385C1277.7 385 1222.3 385 1166.8 385C1111.3 385 1055.7 385 1000 385C944.3 385 888.7 385 833.2 385C777.7 385 722.3 385 666.8 385C611.3 385 555.7 385 500 385C444.3 385 388.7 385 333.2 385C277.7 385 222.3 385 166.8 385C111.3 385 55.7 385 27.8 385L0 385Z" fill="#3e061e"/><path d="M0 206L27.8 188.3C55.7 170.7 111.3 135.3 166.8 121C222.3 106.7 277.7 113.3 333.2 112.3C388.7 111.3 444.3 102.7 500 111.3C555.7 120 611.3 146 666.8 161C722.3 176 777.7 180 833.2 181.3C888.7 182.7 944.3 181.3 1000 175.2C1055.7 169 1111.3 158 1166.8 152.8C1222.3 147.7 1277.7 148.3 1333.2 155C1388.7 161.7 1444.3 174.3 1500 177.3C1555.7 180.3 1611.3 173.7 1666.8 168.3C1722.3 163 1777.7 159 1833.2 156.2C1888.7 153.3 1944.3 151.7 1972.2 150.8L2000 150L2000 385L1972.2 385C1944.3 385 1888.7 385 1833.2 385C1777.7 385 1722.3 385 1666.8 385C1611.3 385 1555.7 385 1500 385C1444.3 385 1388.7 385 1333.2 385C1277.7 385 1222.3 385 1166.8 385C1111.3 385 1055.7 385 1000 385C944.3 385 888.7 385 833.2 385C777.7 385 722.3 385 666.8 385C611.3 385 555.7 385 500 385C444.3 385 388.7 385 333.2 385C277.7 385 222.3 385 166.8 385C111.3 385 55.7 385 27.8 385L0 385Z" fill="#3a071b"/><path d="M0 175L27.8 174.8C55.7 174.7 111.3 174.3 166.8 168.7C222.3 163 277.7 152 333.2 150.3C388.7 148.7 444.3 156.3 500 166.3C555.7 176.3 611.3 188.7 666.8 194C722.3 199.3 777.7 197.7 833.2 187.5C888.7 177.3 944.3 158.7 1000 157.2C1055.7 155.7 1111.3 171.3 1166.8 168.2C1222.3 165 1277.7 143 1333.2 143.5C1388.7 144 1444.3 167 1500 182C1555.7 197 1611.3 204 1666.8 205.7C1722.3 207.3 1777.7 203.7 1833.2 196.3C1888.7 189 1944.3 178 1972.2 172.5L2000 167L2000 385L1972.2 385C1944.3 385 1888.7 385 1833.2 385C1777.7 385 1722.3 385 1666.8 385C1611.3 385 1555.7 385 1500 385C1444.3 385 1388.7 385 1333.2 385C1277.7 385 1222.3 385 1166.8 385C1111.3 385 1055.7 385 1000 385C944.3 385 888.7 385 833.2 385C777.7 385 722.3 385 666.8 385C611.3 385 555.7 385 500 385C444.3 385 388.7 385 333.2 385C277.7 385 222.3 385 166.8 385C111.3 385 55.7 385 27.8 385L0 385Z" fill="#350818"/><path d="M0 217L27.8 204.8C55.7 192.7 111.3 168.3 166.8 171C222.3 173.7 277.7 203.3 333.2 213.3C388.7 223.3 444.3 213.7 500 208.2C555.7 202.7 611.3 201.3 666.8 197.8C722.3 194.3 777.7 188.7 833.2 190.7C888.7 192.7 944.3 202.3 1000 200.8C1055.7 199.3 1111.3 186.7 1166.8 188.8C1222.3 191 1277.7 208 1333.2 214C1388.7 220 1444.3 215 1500 201.8C1555.7 188.7 1611.3 167.3 1666.8 163.3C1722.3 159.3 1777.7 172.7 1833.2 185.2C1888.7 197.7 1944.3 209.3 1972.2 215.2L2000 221L2000 385L1972.2 385C1944.3 385 1888.7 385 1833.2 385C1777.7 385 1722.3 385 1666.8 385C1611.3 385 1555.7 385 1500 385C1444.3 385 1388.7 385 1333.2 385C1277.7 385 1222.3 385 1166.8 385C1111.3 385 1055.7 385 1000 385C944.3 385 888.7 385 833.2 385C777.7 385 722.3 385 666.8 385C611.3 385 555.7 385 500 385C444.3 385 388.7 385 333.2 385C277.7 385 222.3 385 166.8 385C111.3 385 55.7 385 27.8 385L0 385Z" fill="#310916"/><path d="M0 224L27.8 226.5C55.7 229 111.3 234 166.8 238.7C222.3 243.3 277.7 247.7 333.2 243.3C388.7 239 444.3 226 500 216.2C555.7 206.3 611.3 199.7 666.8 202.5C722.3 205.3 777.7 217.7 833.2 213.3C888.7 209 944.3 188 1000 190.8C1055.7 193.7 1111.3 220.3 1166.8 227C1222.3 233.7 1277.7 220.3 1333.2 214.7C1388.7 209 1444.3 211 1500 206.3C1555.7 201.7 1611.3 190.3 1666.8 196.8C1722.3 203.3 1777.7 227.7 1833.2 225.3C1888.7 223 1944.3 194 1972.2 179.5L2000 165L2000 385L1972.2 385C1944.3 385 1888.7 385 1833.2 385C1777.7 385 1722.3 385 1666.8 385C1611.3 385 1555.7 385 1500 385C1444.3 385 1388.7 385 1333.2 385C1277.7 385 1222.3 385 1166.8 385C1111.3 385 1055.7 385 1000 385C944.3 385 888.7 385 833.2 385C777.7 385 722.3 385 666.8 385C611.3 385 555.7 385 500 385C444.3 385 388.7 385 333.2 385C277.7 385 222.3 385 166.8 385C111.3 385 55.7 385 27.8 385L0 385Z" fill="#2c0a13"/><path d="M0 267L27.8 264.5C55.7 262 111.3 257 166.8 243.8C222.3 230.7 277.7 209.3 333.2 207.5C388.7 205.7 444.3 223.3 500 225.5C555.7 227.7 611.3 214.3 666.8 215.7C722.3 217 777.7 233 833.2 239.8C888.7 246.7 944.3 244.3 1000 242.7C1055.7 241 1111.3 240 1166.8 235C1222.3 230 1277.7 221 1333.2 218.8C1388.7 216.7 1444.3 221.3 1500 225.2C1555.7 229 1611.3 232 1666.8 229.8C1722.3 227.7 1777.7 220.3 1833.2 225.8C1888.7 231.3 1944.3 249.7 1972.2 258.8L2000 268L2000 385L1972.2 385C1944.3 385 1888.7 385 1833.2 385C1777.7 385 1722.3 385 1666.8 385C1611.3 385 1555.7 385 1500 385C1444.3 385 1388.7 385 1333.2 385C1277.7 385 1222.3 385 1166.8 385C1111.3 385 1055.7 385 1000 385C944.3 385 888.7 385 833.2 385C777.7 385 722.3 385 666.8 385C611.3 385 555.7 385 500 385C444.3 385 388.7 385 333.2 385C277.7 385 222.3 385 166.8 385C111.3 385 55.7 385 27.8 385L0 385Z" fill="#280910"/><path d="M0 267L27.8 265C55.7 263 111.3 259 166.8 255.5C222.3 252 277.7 249 333.2 243.8C388.7 238.7 444.3 231.3 500 233.7C555.7 236 611.3 248 666.8 253.2C722.3 258.3 777.7 256.7 833.2 249.3C888.7 242 944.3 229 1000 225.8C1055.7 222.7 1111.3 229.3 1166.8 233.3C1222.3 237.3 1277.7 238.7 1333.2 246.8C1388.7 255 1444.3 270 1500 276.3C1555.7 282.7 1611.3 280.3 1666.8 277.5C1722.3 274.7 1777.7 271.3 1833.2 267.8C1888.7 264.3 1944.3 260.7 1972.2 258.8L2000 257L2000 385L1972.2 385C1944.3 385 1888.7 385 1833.2 385C1777.7 385 1722.3 385 1666.8 385C1611.3 385 1555.7 385 1500 385C1444.3 385 1388.7 385 1333.2 385C1277.7 385 1222.3 385 1166.8 385C1111.3 385 1055.7 385 1000 385C944.3 385 888.7 385 833.2 385C777.7 385 722.3 385 666.8 385C611.3 385 555.7 385 500 385C444.3 385 388.7 385 333.2 385C277.7 385 222.3 385 166.8 385C111.3 385 55.7 385 27.8 385L0 385Z" fill="#060d18"/><path d="M0 257L27.8 259C55.7 261 111.3 265 166.8 267.2C222.3 269.3 277.7 269.7 333.2 265C388.7 260.3 444.3 250.7 500 247.3C555.7 244 611.3 247 666.8 246.7C722.3 246.3 777.7 242.7 833.2 249.5C888.7 256.3 944.3 273.7 1000 277.5C1055.7 281.3 1111.3 271.7 1166.8 268C1222.3 264.3 1277.7 266.7 1333.2 273.5C1388.7 280.3 1444.3 291.7 1500 290.2C1555.7 288.7 1611.3 274.3 1666.8 266.8C1722.3 259.3 1777.7 258.7 1833.2 265.3C1888.7 272 1944.3 286 1972.2 293L2000 300L2000 385L1972.2 385C1944.3 385 1888.7 385 1833.2 385C1777.7 385 1722.3 385 1666.8 385C1611.3 385 1555.7 385 1500 385C1444.3 385 1388.7 385 1333.2 385C1277.7 385 1222.3 385 1166.8 385C1111.3 385 1055.7 385 1000 385C944.3 385 888.7 385 833.2 385C777.7 385 722.3 385 666.8 385C611.3 385 555.7 385 500 385C444.3 385 388.7 385 333.2 385C277.7 385 222.3 385 166.8 385C111.3 385 55.7 385 27.8 385L0 385Z" fill="#060d18"/><path d="M0 295L27.8 289.8C55.7 284.7 111.3 274.3 166.8 275.5C222.3 276.7 277.7 289.3 333.2 289.5C388.7 289.7 444.3 277.3 500 279.2C555.7 281 611.3 297 666.8 304C722.3 311 777.7 309 833.2 308.5C888.7 308 944.3 309 1000 305.5C1055.7 302 1111.3 294 1166.8 286.5C1222.3 279 1277.7 272 1333.2 274C1388.7 276 1444.3 287 1500 293C1555.7 299 1611.3 300 1666.8 303.5C1722.3 307 1777.7 313 1833.2 314.5C1888.7 316 1944.3 313 1972.2 311.5L2000 310L2000 385L1972.2 385C1944.3 385 1888.7 385 1833.2 385C1777.7 385 1722.3 385 1666.8 385C1611.3 385 1555.7 385 1500 385C1444.3 385 1388.7 385 1333.2 385C1277.7 385 1222.3 385 1166.8 385C1111.3 385 1055.7 385 1000 385C944.3 385 888.7 385 833.2 385C777.7 385 722.3 385 666.8 385C611.3 385 555.7 385 500 385C444.3 385 388.7 385 333.2 385C277.7 385 222.3 385 166.8 385C111.3 385 55.7 385 27.8 385L0 385Z" fill="#060d18"/><path d="M0 334L27.8 333C55.7 332 111.3 330 166.8 327.2C222.3 324.3 277.7 320.7 333.2 319.3C388.7 318 444.3 319 500 317.5C555.7 316 611.3 312 666.8 309.5C722.3 307 777.7 306 833.2 306.3C888.7 306.7 944.3 308.3 1000 306.5C1055.7 304.7 1111.3 299.3 1166.8 299.5C1222.3 299.7 1277.7 305.3 1333.2 311.3C1388.7 317.3 1444.3 323.7 1500 327.3C1555.7 331 1611.3 332 1666.8 330.8C1722.3 329.7 1777.7 326.3 1833.2 321.2C1888.7 316 1944.3 309 1972.2 305.5L2000 302L2000 385L1972.2 385C1944.3 385 1888.7 385 1833.2 385C1777.7 385 1722.3 385 1666.8 385C1611.3 385 1555.7 385 1500 385C1444.3 385 1388.7 385 1333.2 385C1277.7 385 1222.3 385 1166.8 385C1111.3 385 1055.7 385 1000 385C944.3 385 888.7 385 833.2 385C777.7 385 722.3 385 666.8 385C611.3 385 555.7 385 500 385C444.3 385 388.7 385 333.2 385C277.7 385 222.3 385 166.8 385C111.3 385 55.7 385 27.8 385L0 385Z" fill="#060d18"/><path d="M0 319L27.8 320.3C55.7 321.7 111.3 324.3 166.8 329.7C222.3 335 277.7 343 333.2 346.7C388.7 350.3 444.3 349.7 500 348.8C555.7 348 611.3 347 666.8 343.2C722.3 339.3 777.7 332.7 833.2 328.8C888.7 325 944.3 324 1000 322.3C1055.7 320.7 1111.3 318.3 1166.8 318C1222.3 317.7 1277.7 319.3 1333.2 322.5C1388.7 325.7 1444.3 330.3 1500 334C1555.7 337.7 1611.3 340.3 1666.8 338.5C1722.3 336.7 1777.7 330.3 1833.2 328.2C1888.7 326 1944.3 328 1972.2 329L2000 330L2000 385L1972.2 385C1944.3 385 1888.7 385 1833.2 385C1777.7 385 1722.3 385 1666.8 385C1611.3 385 1555.7 385 1500 385C1444.3 385 1388.7 385 1333.2 385C1277.7 385 1222.3 385 1166.8 385C1111.3 385 1055.7 385 1000 385C944.3 385 888.7 385 833.2 385C777.7 385 722.3 385 666.8 385C611.3 385 555.7 385 500 385C444.3 385 388.7 385 333.2 385C277.7 385 222.3 385 166.8 385C111.3 385 55.7 385 27.8 385L0 385Z" fill="#060d18"/><path d="M0 347L27.8 350C55.7 353 111.3 359 166.8 358.5C222.3 358 277.7 351 333.2 347C388.7 343 444.3 342 500 342.7C555.7 343.3 611.3 345.7 666.8 348.2C722.3 350.7 777.7 353.3 833.2 352.2C888.7 351 944.3 346 1000 344.7C1055.7 343.3 1111.3 345.7 1166.8 349C1222.3 352.3 1277.7 356.7 1333.2 357.5C1388.7 358.3 1444.3 355.7 1500 355.2C1555.7 354.7 1611.3 356.3 1666.8 355C1722.3 353.7 1777.7 349.3 1833.2 348.3C1888.7 347.3 1944.3 349.7 1972.2 350.8L2000 352L2000 385L1972.2 385C1944.3 385 1888.7 385 1833.2 385C1777.7 385 1722.3 385 1666.8 385C1611.3 385 1555.7 385 1500 385C1444.3 385 1388.7 385 1333.2 385C1277.7 385 1222.3 385 1166.8 385C1111.3 385 1055.7 385 1000 385C944.3 385 888.7 385 833.2 385C777.7 385 722.3 385 666.8 385C611.3 385 555.7 385 500 385C444.3 385 388.7 385 333.2 385C277.7 385 222.3 385 166.8 385C111.3 385 55.7 385 27.8 385L0 385Z" fill="#060d18"/></svg>