<svg xmlns="http://www.w3.org/2000/svg" xmlns:xlink="http://www.w3.org/1999/xlink" width="32" height="25" viewBox="0 0 32 25"><title>ic_logo_google_cloud_24dp</title><defs><path id="a" d="M0 0h32v32H0z"/></defs><g transform="translate(0 -3)" fill="none" fill-rule="evenodd"><mask id="b" fill="#fff"><use xlink:href="#a"/></mask><g mask="url(#b)" fill-rule="nonzero"><path d="M20.185 10.145l.982.018 2.668-2.668.13-1.13A11.944 11.944 0 0 0 16 3.33c-5.532 0-10.197 3.762-11.58 8.862.292-.202.913-.052.913-.052l5.334-.877s.276-.453.411-.425a6.653 6.653 0 0 1 9.107-.693z" fill="#EA4335"/><path d="M27.583 12.198a12.018 12.018 0 0 0-3.62-5.835l-3.78 3.78a6.657 6.657 0 0 1 2.484 5.187v.667A3.337 3.337 0 0 1 26 19.33a3.337 3.337 0 0 1-3.333 3.333H16l-.667.67v4l.667.664h6.667c4.778 0 8.666-3.889 8.666-8.667a8.66 8.66 0 0 0-3.75-7.132z" fill="#4285F4"/><path d="M9.333 27.997h6.662v-5.334H9.333c-.49 0-.953-.108-1.373-.3l-.96.295-2.67 2.67-.233.902a8.624 8.624 0 0 0 5.236 1.767z" fill="#34A853"/><path d="M9.333 10.663c-4.778 0-8.666 3.889-8.666 8.667A8.654 8.654 0 0 0 4.1 26.232l3.865-3.865A3.336 3.336 0 0 1 6 19.33a3.337 3.337 0 0 1 3.333-3.333c1.35 0 2.514.808 3.037 1.965l3.865-3.865a8.654 8.654 0 0 0-6.902-3.434z" fill="#FBBC05"/></g></g></svg>