<svg xmlns="http://www.w3.org/2000/svg" viewBox="0 0 175.34 18.57"><defs><style>.cls-1{fill:#fff;}</style></defs><g id="Layer_2" data-name="Layer 2"><g id="OBJECTS"><path class="cls-1" d="M11.07,16A6,6,0,0,1,6,18.57,5.64,5.64,0,0,1,2.07,17,6.48,6.48,0,0,1,0,12,6.73,6.73,0,0,1,1.55,7.61,5.6,5.6,0,0,1,6,5.48,5.57,5.57,0,0,1,9.9,7.06,6.47,6.47,0,0,1,12,12v1.09H2.29a4.71,4.71,0,0,0,.65,1.53A3.51,3.51,0,0,0,6,16.38a4,4,0,0,0,3.32-1.69ZM9.81,10.93a2.87,2.87,0,0,0-.73-1.72A3.89,3.89,0,0,0,6,7.66a3.38,3.38,0,0,0-1.61.41,4,4,0,0,0-2.1,2.86Z"/><path class="cls-1" d="M21.45,9.27a1.15,1.15,0,0,0-.3-.76A2.61,2.61,0,0,0,19,7.66a4.14,4.14,0,0,0-1.11.16c-.91.3-1.37.78-1.37,1.45a.74.74,0,0,0,.17.44,6.51,6.51,0,0,0,2.5,1.11c.91.28,1.59.5,2,.68q2.89,1.18,2.86,3.28a3.23,3.23,0,0,1-.81,2.07A5.32,5.32,0,0,1,19,18.57a6,6,0,0,1-3.4-1,3.36,3.36,0,0,1-1.67-2.83h2.18a1.11,1.11,0,0,0,.33.76,3.33,3.33,0,0,0,2.56.84,5,5,0,0,0,1.26-.16c1.09-.27,1.63-.75,1.63-1.44a.76.76,0,0,0-.13-.41,6.29,6.29,0,0,0-2.48-1.09c-.89-.28-1.57-.5-2-.69-1.93-.78-2.9-1.88-2.92-3.32a3.33,3.33,0,0,1,.82-2.15A4.73,4.73,0,0,1,19,5.48a5.21,5.21,0,0,1,3,.9,3.42,3.42,0,0,1,1.64,2.89Z"/><path class="cls-1" d="M37,16A6,6,0,0,1,32,18.57,5.64,5.64,0,0,1,28,17,6.48,6.48,0,0,1,26,12a6.68,6.68,0,0,1,1.56-4.41,5.65,5.65,0,0,1,8.34-.55A6.44,6.44,0,0,1,38,12v1.09H28.24a4.74,4.74,0,0,0,.66,1.53A3.5,3.5,0,0,0,32,16.38a4,4,0,0,0,3.33-1.69Zm-1.25-5.07A2.89,2.89,0,0,0,35,9.21,3.88,3.88,0,0,0,32,7.66a3.41,3.41,0,0,0-1.61.41,4,4,0,0,0-2.1,2.86Z"/><path class="cls-1" d="M48.44,9a1.91,1.91,0,0,0-.54-1.31,3.89,3.89,0,0,0-3-1.12A4.76,4.76,0,0,0,43,7a2.25,2.25,0,0,0-1.55,2,1.31,1.31,0,0,0,.08.43c.22.58,1.13,1.15,2.73,1.69,2,.66,3,1,3.16,1.09,1.74.73,2.62,1.68,2.62,2.84A2.75,2.75,0,0,1,49.15,17a5.53,5.53,0,0,1-4.22,1.59,6.31,6.31,0,0,1-3.36-.88,3.09,3.09,0,0,1-1.71-2.64H41a2,2,0,0,0,.62,1.33,4.74,4.74,0,0,0,3.36,1.09A5.8,5.8,0,0,0,47.19,17c1.14-.47,1.72-1.14,1.72-2a1.36,1.36,0,0,0-.08-.44c-.22-.58-1.12-1.13-2.7-1.66-2-.66-3-1-3.17-1.09-1.76-.73-2.64-1.68-2.64-2.86a2.92,2.92,0,0,1,.79-2,4.89,4.89,0,0,1,3.82-1.55,5.29,5.29,0,0,1,2.94.82A3.13,3.13,0,0,1,49.53,9Z"/><path class="cls-1" d="M56.49,7.58a5.59,5.59,0,0,1,4.41-2.1,5.65,5.65,0,0,1,4,1.61,6.55,6.55,0,0,1,2,4.93,6.81,6.81,0,0,1-1.58,4.45A5.68,5.68,0,0,1,57,17a6.58,6.58,0,0,1-2-4.94A6.71,6.71,0,0,1,56.49,7.58Zm.65,8a4.6,4.6,0,0,0,6.87.71A5.45,5.45,0,0,0,65.81,12a5.71,5.71,0,0,0-1.15-3.51,4.58,4.58,0,0,0-6.87-.71A5.44,5.44,0,0,0,56,12,5.81,5.81,0,0,0,57.14,15.54Z"/><path class="cls-1" d="M77.8,5.48h.55V6.57H74.53v12H73.44v-12H71.26V5.48h2.21A9.14,9.14,0,0,1,74,2.75,3.84,3.84,0,0,1,77.8,0h.55V1.09H77.8a2.73,2.73,0,0,0-1,.19c-1.33.51-2.06,1.91-2.21,4.2Z"/><path class="cls-1" d="M85.46,15v.25c.15,1.49,1.23,2.23,3.25,2.23h.54v1.1h-.54a6.36,6.36,0,0,1-.87-.06c-2.29-.23-3.45-1.41-3.47-3.52V6.57h-2.2V5.48h2.2V2.07h1.09V5.48h3.79V6.57H85.46Z"/><path class="cls-1" d="M93.45,5.48h1.12l.11.41,2.86,10.44,4.28-10.52.16-.33h.71l.17.33,4.28,10.52L110,5.89l.11-.41h1.11l-.19.68-3.27,12-.11.41h-.76l-.16-.33L102.34,7.47,98,18.24l-.16.33H97l-.11-.41-3.27-12Z"/><path class="cls-1" d="M117.55,7.58A5.6,5.6,0,0,1,122,5.48a6.41,6.41,0,0,1,1,.08,5.77,5.77,0,0,1,4,2.7V5.48H128V18.57h-1.09V15.79c-.14.21-.31.44-.49.68a5.59,5.59,0,0,1-4.41,2.1A5.65,5.65,0,0,1,118,17,6.58,6.58,0,0,1,116,12,6.76,6.76,0,0,1,117.55,7.58Zm.65,8A4.55,4.55,0,0,0,122,17.47a4.47,4.47,0,0,0,3.1-1.22,5.45,5.45,0,0,0,1.8-4.23,5.76,5.76,0,0,0-1.14-3.51,4.58,4.58,0,0,0-6.87-.71,5.45,5.45,0,0,0-1.8,4.22A5.81,5.81,0,0,0,118.2,15.54Z"/><path class="cls-1" d="M136.22,7.85a5.8,5.8,0,0,1,5.05-2.37h.54V6.57h-.54a5.61,5.61,0,0,0-2.7.65,4.88,4.88,0,0,0-2.43,4.56v6.79h-1.09V5.48h1.09V8A.38.38,0,0,0,136.22,7.85Z"/><path class="cls-1" d="M157.08,16a6.19,6.19,0,0,1-5.18,2.62A5.64,5.64,0,0,1,148,17a6.53,6.53,0,0,1-2.07-5,6.69,6.69,0,0,1,1.56-4.39,5.53,5.53,0,0,1,4.44-2.15,5.61,5.61,0,0,1,3.95,1.61A6.56,6.56,0,0,1,157.9,12v.55H147a6,6,0,0,0,1.09,2.94,4.52,4.52,0,0,0,3.79,2,5.17,5.17,0,0,0,4.31-2.18Zm-.27-4.47a4.82,4.82,0,0,0-1.15-3.06,4.71,4.71,0,0,0-3.76-1.85,4.63,4.63,0,0,0-2.81.95,5.37,5.37,0,0,0-2.07,4Z"/><path class="cls-1" d="M162.8,8.66V6.31l1.5.6L174.66,11l.68.27v1.47l-.68.28L164.3,17.13l-1.5.6V15.39l.69-.27L171.28,12l-7.79-3.08Z"/></g></g></svg>