<svg xmlns="http://www.w3.org/2000/svg" viewBox="0 0 62.46 62.46"><defs><style>.cls-1{fill:#f4f4f4;}</style></defs><g id="Layer_2" data-name="Layer 2"><g id="OBJECTS"><path class="cls-1" d="M21.92,31.66a9.72,9.72,0,0,1,9.57-10.3c5.7-.18,9.7,4,9.9,10.22l0,1.1-14.19.44c.39,2.4,2.39,4.36,5.63,4.26a8.11,8.11,0,0,0,5-2.06l2.31,3.18a11.88,11.88,0,0,1-7.78,2.89C26.62,41.57,22.11,37.79,21.92,31.66Zm9.7-6.31A4.59,4.59,0,0,0,27,29.72l9.41-.29A4.42,4.42,0,0,0,31.62,25.35Z"/><path class="cls-1" d="M19.56,42.77a17.52,17.52,0,0,1-1.64-2,16.47,16.47,0,0,1,27-18.87,1.73,1.73,0,1,1-2.83,2A13,13,0,1,0,38.88,42a1.73,1.73,0,0,1,2,2.83,16.47,16.47,0,0,1-21.3-2.07Z"/><path class="cls-1" d="M51.73,6.38,40.55,21.26l-2.34-1.75,1.32-1.74,2.13-2.84a19.39,19.39,0,0,0-22,.8,1.44,1.44,0,0,1-1.74,0,1.46,1.46,0,0,1,0-2.34,22.31,22.31,0,0,1,25.52-.8L48,6.52,49.4,4.63A2.17,2.17,0,0,0,50.22,6,2.2,2.2,0,0,0,51.73,6.38Z"/><path class="cls-1" d="M54.06.85A4.23,4.23,0,0,0,48,6.52a4.34,4.34,0,0,0,1,1.09A4.23,4.23,0,1,0,54.06.85Zm-.8,4.68a2.16,2.16,0,0,1-1.53.85A2.2,2.2,0,0,1,50.22,6a2.17,2.17,0,1,1,3-.43Z"/><path class="cls-1" d="M44.58,49.07a22.17,22.17,0,0,1-9.47,4.09h0l-.6.09A22.2,22.2,0,0,1,19,49.87l-6,8a2.1,2.1,0,0,0-.83-1.33,2.15,2.15,0,0,0-1.51-.42l1.43-1.9,4.56-6.06,1.76-2.33L20.6,43l1.31-1.75.56.42,1.19.9.58.43L22.93,44.7,20.8,47.53a19.16,19.16,0,0,0,13,2.88l.29,0a19.29,19.29,0,0,0,8.73-3.63,1.46,1.46,0,1,1,1.76,2.33Z"/><path class="cls-1" d="M14.49,55.93a4.53,4.53,0,0,0-1-1.08,4.19,4.19,0,1,0,1,1.08Zm-1.83,3.6a2.16,2.16,0,1,1-3.46-2.6,2.12,2.12,0,0,1,1.52-.85,2.15,2.15,0,0,1,1.51.42,2.1,2.1,0,0,1,.83,1.33A2.15,2.15,0,0,1,12.66,59.53Z"/><path class="cls-1" d="M15.76,19.6A19.24,19.24,0,0,0,12,33.81a19.55,19.55,0,0,0,2.67,7.51c.32.52.65,1,1,1.51a1.45,1.45,0,1,1-2.33,1.74c-.42-.55-.81-1.13-1.18-1.73A22.36,22.36,0,0,1,12.58,19l-7.95-6A2.22,2.22,0,0,0,6,12.24a2.18,2.18,0,0,0,.42-1.51l1.9,1.42,8.4,6.31C16.36,18.83,16.05,19.21,15.76,19.6Z"/><path class="cls-1" d="M6.77,7.55a4.23,4.23,0,1,0-.25,6.94,4.39,4.39,0,0,0,1.09-1,4.12,4.12,0,0,0,.67-1.32A4.26,4.26,0,0,0,6.77,7.55ZM6,12.24a2.22,2.22,0,0,1-1.33.82,2.14,2.14,0,0,1-1.7-.39,2.16,2.16,0,1,1,3-.43Z"/><path class="cls-1" d="M57.83,49.4a2.13,2.13,0,0,0-1.33.82,2.1,2.1,0,0,0-.42,1.51L45.78,44c.32-.36.63-.74.92-1.13a19.39,19.39,0,0,0,0-23.23,1.4,1.4,0,0,1-.27-.67,1.42,1.42,0,0,1,.27-1.08,1.46,1.46,0,0,1,2.33,0,22.32,22.32,0,0,1,.81,25.54L55.93,48Z"/><path class="cls-1" d="M60.77,48.14A4.25,4.25,0,0,0,55.93,48a4.26,4.26,0,0,0-1.75,2.33,4.23,4.23,0,1,0,6.59-2.16ZM60,52.83a2.16,2.16,0,0,1-3.88-1.1,2.1,2.1,0,0,1,.42-1.51,2.18,2.18,0,0,1,3-.43A2.17,2.17,0,0,1,60,52.83Z"/></g></g></svg>