<?xml version="1.0" encoding="utf-8"?>
<!-- Generator: Adobe Illustrator 27.5.0, SVG Export Plug-In . SVG Version: 6.00 Build 0)  -->
<svg version="1.1" xmlns="http://www.w3.org/2000/svg" xmlns:xlink="http://www.w3.org/1999/xlink" x="0px" y="0px"
	 viewBox="0 0 500 500" style="enable-background:new 0 0 500 500;" xml:space="preserve">
<g id="BACKGROUND">
	<rect x="0" y="-0.051" style="fill:#111111;" width="500.003" height="500.027"/>
</g>
<g id="OBJECTS">
	<g>
		<defs>
			<rect id="SVGID_1_" y="-0.09" width="501.033" height="501.033"/>
		</defs>
		<clipPath id="SVGID_00000020360739578780985900000017970532435752465308_">
			<use xlink:href="#SVGID_1_"  style="overflow:visible;"/>
		</clipPath>
		<g style="clip-path:url(#SVGID_00000020360739578780985900000017970532435752465308_);">
			<g style="opacity:0.1;">
				<g>
					<path style="fill:#FFFFFF;" d="M-2.667-0.09l0.677,277.958l-0.677,222.108h392.788l-16.642-10.698l-138.837-23.421
						l-16.351,19.03l6.838-16.729l-9.513-3.555l-10.703,19.03l-11-2.091l10.108-16.729l-20.216-3.764l-10.405,17.775l-8.324-2.091
						l13.081-16.311l-15.228-3.764l-3.798,7.946l-95.134-9.829l-3.27-8.992l24.081-34.295l72.243,8.783l26.757-8.783l82.351,6.483
						l78.486-61.063h15.756l-24.081,39.314l-34.783,30.95l52.919,8.473l54.405,21.221l77.69-18.821l1.985,40.778L463.175,500
						l36.823-0.024l1.035-500.027L-2.667-0.09z M97.991,363.806l-34.663,14.429l6.912,18.507l-6.912,12.547l6.912,1.568
						l-13.824,19.448L1.118,313.008l3.568-10.787l1.784-29.9l19.176-10.774l31.216-58.03l-28.54-39.719l20.067-117.59L47.942,96.71
						l18.354,26.593l-12.111,38.809l17.392,45.17l-27.648,65.04L28.321,327.42l20.959,12.103l16.5-9.793l-1.784,14.161
						l-22.297,17.72l11.594,6.901l50.978-24.621L97.991,363.806z"/>
				</g>
			</g>
			<g>
				<path style="fill:#FFFFFF;stroke:#FFFFFF;stroke-width:2;stroke-miterlimit:10;" d="M171.547,395.618
					c-0.35-1.725-35.107-173.113-47.992-229.631c-9.689-42.505-42-170.002-42.325-171.285l2.908-0.737
					c0.325,1.283,32.644,128.815,42.341,171.355c12.893,56.554,47.658,227.977,48.008,229.703L171.547,395.618z"/>
			</g>
			<g>
				<path style="fill:#FFFFFF;stroke:#FFFFFF;stroke-width:2;stroke-miterlimit:10;" d="M92.153,407.872l-0.407-0.179
					c-0.523-0.231-52.579-23.151-70.245-29.632c-20.622-7.564-84.254-26.447-84.895-26.637l0.853-2.877
					c0.642,0.19,64.365,19.1,85.075,26.697c16.921,6.207,65.072,27.35,70.015,29.523c10.04-1.623,184.59-29.739,244.063-32.613
					c36.506-1.768,144.654,5.065,151.2,5.481l12.73-4.401l0.98,2.836l-13.301,4.599l-0.302-0.02
					c-1.135-0.074-113.867-7.299-151.164-5.499c-60.768,2.937-242.338,32.353-244.165,32.649L92.153,407.872z"/>
			</g>
			<g>
				<path style="fill:#FFFFFF;stroke:#FFFFFF;stroke-width:2;stroke-miterlimit:10;" d="M-12.621,744.95l-2.723-1.26
					c0.638-1.378,64.128-138.395,96.725-195.612c31.385-55.091,93.976-151.275,126.396-198.936
					c22.253-32.713,59.595-85.659,92.541-132.373c21.981-31.167,42.743-60.606,57.467-81.805
					c24.14-34.757,95.771-140.41,96.491-141.473l2.482,1.684c-0.721,1.063-72.36,106.73-96.509,141.5
					c-14.73,21.208-35.496,50.651-57.48,81.823c-32.938,46.705-70.272,99.639-92.512,132.332
					c-32.393,47.62-94.925,143.713-126.27,198.732C51.453,606.672-11.984,743.574-12.621,744.95z"/>
			</g>
			<g>
				<polygon style="fill:#FFFFFF;stroke:#FFFFFF;stroke-width:2;stroke-miterlimit:10;" points="296.082,224.896 126.173,49.745 
					141.907,-6.073 144.795,-5.26 129.529,48.896 298.235,222.807 				"/>
			</g>
			<g>
				<path style="fill:#FFFFFF;" d="M321.261,789.173l-2.486-1.68c0.456-0.675,45.775-67.65,63.449-87.828
					c26.44-30.188,116.902-110.656,117.813-111.466l1.992,2.242c-0.909,0.809-91.231,81.153-117.55,111.2
					C366.929,721.68,321.715,788.5,321.261,789.173z"/>
			</g>
			<g>
				
					<rect x="96.485" y="51.633" transform="matrix(0.8525 -0.5228 0.5228 0.8525 -4.847 89.0906)" style="fill:#FFFFFF;" width="117.894" height="3"/>
			</g>
			<g>
				<polygon style="fill:#FFFFFF;" points="343.911,374.004 341.12,372.904 389.951,248.954 372.136,171.753 351.156,146.406 
					353.467,144.493 374.899,170.387 374.979,170.733 393.084,249.187 392.913,249.62 				"/>
			</g>
			<g>
				<polygon style="fill:#FFFFFF;" points="359.092,155.201 307.578,77.589 208.208,26.157 208.123,26.085 171.373,-4.902 
					172.662,-6.431 209.327,24.483 308.957,76.051 309.101,76.267 360.758,154.094 				"/>
			</g>
			<g>
				<polygon style="fill:#FFFFFF;" points="163.946,86.555 162.58,85.094 192.77,56.852 174.936,41.534 176.238,40.016 
					195.765,56.789 				"/>
			</g>
			<g>
				
					<rect x="227.33" y="115.259" transform="matrix(0.7511 -0.6602 0.6602 0.7511 -7.9865 211.3353)" style="fill:#FFFFFF;" width="97.855" height="2"/>
			</g>
			<g>
				
					<rect x="241.871" y="83.775" transform="matrix(0.7066 -0.7076 0.7076 0.7066 18.517 215.2101)" style="fill:#FFFFFF;" width="53.831" height="3"/>
			</g>
			<g>
				<polygon style="fill:#FFFFFF;" points="269.7,122.208 207.032,68.109 236.874,39.504 238.259,40.948 210.003,68.032 
					271.007,120.694 				"/>
			</g>
			<g>
				
					<rect x="205.467" y="23.2" transform="matrix(0.5606 -0.8281 0.8281 0.5606 55.0298 189.9008)" style="fill:#FFFFFF;" width="2" height="39.786"/>
			</g>
			<g>
				
					<rect x="198.7" y="32.655" transform="matrix(0.7787 -0.6274 0.6274 0.7787 24.7903 137.5955)" style="fill:#FFFFFF;" width="17.501" height="2"/>
			</g>
			<g>
				
					<rect x="210.741" y="40.241" transform="matrix(0.7192 -0.6948 0.6948 0.7192 33.1603 164.5342)" style="fill:#FFFFFF;" width="18.805" height="2"/>
			</g>
			<g>
				
					<rect x="200.393" y="53.368" transform="matrix(0.6196 -0.7849 0.7849 0.6196 27.5886 181.821)" style="fill:#FFFFFF;" width="2" height="18.156"/>
			</g>
			<g>
				
					<rect x="278.035" y="80.856" transform="matrix(0.6505 -0.7595 0.7595 0.6505 25.3136 245.155)" style="fill:#FFFFFF;" width="2" height="28.433"/>
			</g>
			<g>
				
					<rect x="289.354" y="69.605" transform="matrix(0.587 -0.8096 0.8096 0.587 51.5033 269.9694)" style="fill:#FFFFFF;" width="2" height="29.801"/>
			</g>
			<g>
				
					<rect x="112.889" y="112.462" transform="matrix(0.9114 -0.4115 0.4115 0.9114 -33.7304 70.2559)" style="fill:#FFFFFF;" width="66.81" height="2"/>
			</g>
			<g>
				<polygon style="fill:#FFFFFF;" points="191.462,268.221 142.272,115.154 144.176,114.542 192.823,265.92 217.828,261.089 
					218.208,263.052 				"/>
			</g>
			<g>
				
					<rect x="96.658" y="149.398" transform="matrix(0.9807 -0.1954 0.1954 0.9807 -26.9732 27.3256)" style="fill:#FFFFFF;" width="56.755" height="2"/>
			</g>
			<g>
				
					<rect x="136.675" y="158.937" transform="matrix(0.9727 -0.232 0.232 0.9727 -33.0896 38.4473)" style="fill:#FFFFFF;" width="20.553" height="2"/>
			</g>
			<g>
				
					<rect x="144.9" y="179.192" transform="matrix(0.9742 -0.2256 0.2256 0.9742 -36.6736 39.4663)" style="fill:#FFFFFF;" width="18.883" height="2"/>
			</g>
			<g>
				
					<rect x="118.243" y="199.774" transform="matrix(0.965 -0.2622 0.2622 0.965 -47.6161 44.7669)" style="fill:#FFFFFF;" width="51.329" height="2"/>
			</g>
			<g>
				
					<rect x="123.478" y="218.565" transform="matrix(0.9624 -0.2715 0.2715 0.9624 -53.9945 48.8435)" style="fill:#FFFFFF;" width="52.104" height="2"/>
			</g>
			<g>
				
					<rect x="152.308" y="145.025" transform="matrix(0.75 -0.6614 0.6614 0.75 -51.5395 156.6917)" style="fill:#FFFFFF;" width="58.402" height="3"/>
			</g>
			<g>
				
					<rect x="163.952" y="180.282" transform="matrix(0.7811 -0.6244 0.6244 0.7811 -69.8199 163.4007)" style="fill:#FFFFFF;" width="68.381" height="2"/>
			</g>
			<g>
				<polygon style="fill:#FFFFFF;" points="180.472,229.955 179.102,227.286 217.063,207.791 246.959,172.096 292.811,127.907 
					294.893,130.067 249.099,174.2 218.973,210.183 				"/>
			</g>
			<g>
				<polygon style="fill:#FFFFFF;" points="216.893,209.979 194.273,184.331 171.825,154.926 174.21,153.106 196.625,182.468 
					219.143,207.995 				"/>
			</g>
			<g>
				<polygon style="fill:#FFFFFF;" points="125.05,264.223 118.479,258.402 119.806,256.905 125.652,262.084 144.968,258.667 
					186.782,250.763 219.074,225.841 265.705,191.238 266.896,192.844 220.28,227.436 187.625,252.64 187.389,252.684 
					145.328,260.634 				"/>
			</g>
			<g>
				<polygon style="fill:#FFFFFF;" points="132.755,301.169 124.375,263.37 126.327,262.937 134.28,298.804 152.467,294.977 
					152.879,296.934 				"/>
			</g>
			<g>
				<polygon style="fill:#FFFFFF;" points="129.684,282.539 129.186,280.602 148.422,275.653 191.928,266.094 192.357,268.047 
					148.886,277.599 				"/>
			</g>
			<g>
				<polygon style="fill:#FFFFFF;" points="229.377,247.776 218.794,227.088 210.325,213.013 212.039,211.982 220.542,226.117 
					231.158,246.865 				"/>
			</g>
			<g>
				
					<rect x="236.336" y="191.429" transform="matrix(0.684 -0.7295 0.7295 0.684 -71.8926 236.7598)" style="fill:#FFFFFF;" width="2" height="19.867"/>
			</g>
			<g>
				
					<rect x="278.904" y="156.346" transform="matrix(0.6154 -0.7882 0.7882 0.6154 -2.199 311.186)" style="fill:#FFFFFF;" width="77.755" height="3.001"/>
			</g>
			<g>
				
					<rect x="268.932" y="139.123" transform="matrix(0.7065 -0.7078 0.7078 0.7065 -10.477 255.9842)" style="fill:#FFFFFF;" width="68.857" height="3"/>
			</g>
			<g>
				
					<rect x="258.191" y="134.62" transform="matrix(0.752 -0.6591 0.6591 0.752 -31.8695 207.3937)" style="fill:#FFFFFF;" width="3" height="22.862"/>
			</g>
			<g>
				
					<rect x="271.511" y="123.207" transform="matrix(0.7325 -0.6808 0.6808 0.7325 -18.4843 221.4355)" style="fill:#FFFFFF;" width="2" height="22.06"/>
			</g>
			<g>
				
					<rect x="290.198" y="109.12" transform="matrix(0.7406 -0.672 0.672 0.7406 -9.9426 228.6853)" style="fill:#FFFFFF;" width="1.999" height="36.198"/>
			</g>
			<g>
				<polygon style="fill:#FFFFFF;" points="329.307,178.208 312.406,165.793 292.282,151.975 293.415,150.327 313.564,164.163 
					330.49,176.597 				"/>
			</g>
			<g>
				<polygon style="fill:#FFFFFF;" points="343.803,157.539 327.66,145.215 311.313,132.85 312.52,131.255 328.87,143.623 
					345.016,155.949 				"/>
			</g>
			<g>
				<polygon style="fill:#FFFFFF;stroke:#FFFFFF;stroke-width:2;stroke-miterlimit:10;" points="50.577,388.063 47.69,387.244 
					59.318,346.218 92.506,338.82 216.29,337.838 216.313,340.838 92.689,341.819 61.717,348.755 				"/>
			</g>
			<g>
				
					<rect x="125.654" y="360.369" transform="matrix(0.9984 -0.0557 0.0557 0.9984 -19.8971 8.6787)" style="fill:#FFFFFF;" width="40.254" height="1.999"/>
			</g>
			<g>
				
					<rect x="32.986" y="414.342" transform="matrix(0.5744 -0.8186 0.8186 0.5744 -316.085 222.7621)" style="fill:#FFFFFF;" width="46.377" height="1.999"/>
			</g>
			<g>
				
					<rect x="70.221" y="404.464" transform="matrix(0.3708 -0.9287 0.9287 0.3708 -344.9527 330.2213)" style="fill:#FFFFFF;" width="2" height="30.43"/>
			</g>
			<g>
				<polygon style="fill:#FFFFFF;" points="74.917,203.154 63.268,184.355 63.268,137.455 65.268,137.455 65.268,183.786 
					76.618,202.1 				"/>
			</g>
			<g>
				
					<rect x="63.705" y="169.404" transform="matrix(0.9786 -0.2056 0.2056 0.9786 -33.1098 22.1553)" style="fill:#FFFFFF;" width="52.705" height="2"/>
			</g>
			<g>
				
					<rect x="68.669" y="185.771" transform="matrix(0.9794 -0.2021 0.2021 0.9794 -35.7951 23.0033)" style="fill:#FFFFFF;" width="52.136" height="2"/>
			</g>
			<g>
				
					<rect x="233.953" y="225.224" transform="matrix(0.5307 -0.8476 0.8476 0.5307 -68.8783 328.0524)" style="fill:#FFFFFF;" width="55.683" height="2"/>
			</g>
			<g>
				
					<rect x="267.218" y="227.863" transform="matrix(0.4226 -0.9063 0.9063 0.4226 -64.0405 382.5618)" style="fill:#FFFFFF;" width="2" height="27.354"/>
			</g>
			<g>
				<polygon style="fill:#FFFFFF;" points="342.133,280.481 272.234,260.413 272.787,258.491 341.289,278.159 382.542,217.138 
					320.879,190.567 321.67,188.73 385.552,216.257 				"/>
			</g>
			<g>
				<polygon style="fill:#FFFFFF;" points="322.354,260.723 284.255,242.442 285.12,240.639 321.682,258.182 341.018,230.313 
					304.744,213.404 305.59,211.591 344.014,229.504 				"/>
			</g>
			<g>
				
					<rect x="340.332" y="241.655" transform="matrix(0.4106 -0.9118 0.9118 0.4106 -31.7881 461.8405)" style="fill:#FFFFFF;" width="2" height="27.706"/>
			</g>
			<g>
				
					<rect x="322.491" y="264.401" transform="matrix(0.5675 -0.8234 0.8234 0.5675 -73.846 390.2199)" style="fill:#FFFFFF;" width="24.036" height="2"/>
			</g>
			<g>
				
					<rect x="337.214" y="217.501" transform="matrix(0.6445 -0.7646 0.7646 0.6445 -41.8816 346.9241)" style="fill:#FFFFFF;" width="29.846" height="2"/>
			</g>
			<g>
				
					<rect x="310.564" y="264.351" transform="matrix(0.5808 -0.8141 0.8141 0.5808 -82.7793 369.9585)" style="fill:#FFFFFF;" width="14.492" height="2.001"/>
			</g>
			<g>
				
					<rect x="339.864" y="184.743" transform="matrix(0.6808 -0.7325 0.7325 0.6808 -21.1652 322.9225)" style="fill:#FFFFFF;" width="40.051" height="2"/>
			</g>
			<g>
				
					<rect x="346.808" y="162.765" transform="matrix(0.5637 -0.826 0.826 0.5637 5.1822 364.6813)" style="fill:#FFFFFF;" width="2" height="29.34"/>
			</g>
			<g>
				
					<rect x="325.953" y="288.182" transform="matrix(0.205 -0.9788 0.9788 0.205 -55.2251 576.0166)" style="fill:#FFFFFF;" width="2" height="67.639"/>
			</g>
			<g>
				<polygon style="fill:#FFFFFF;" points="376.268,373.454 374.268,373.454 374.268,360.983 289.216,334.023 289.819,332.117 
					376.268,359.519 				"/>
			</g>
			<g>
				
					<rect x="371.954" y="243.034" transform="matrix(0.2688 -0.9632 0.9632 0.2688 24.8377 547.4133)" style="fill:#FFFFFF;" width="1.999" height="28.629"/>
			</g>
			<g>
				
					<rect x="357.489" y="267.163" transform="matrix(0.3114 -0.9503 0.9503 0.3114 -23.8141 536.7733)" style="fill:#FFFFFF;" width="2" height="35.313"/>
			</g>
			<g>
				<polygon style="fill:#FFFFFF;" points="315.632,87.655 314.298,86.166 383.564,24.076 444.744,8.887 445.227,10.829 
					384.529,25.897 				"/>
			</g>
			<g>
				
					<rect x="326.267" y="8.422" transform="matrix(0.7489 -0.6627 0.6627 0.7489 57.5225 226.2309)" style="fill:#FFFFFF;" width="2" height="57.587"/>
			</g>
			<g>
				<polygon style="fill:#FFFFFF;" points="374.787,43.918 368.133,39.347 322.322,-4.948 323.713,-6.385 369.463,37.851 
					375.916,42.268 				"/>
			</g>
			<g>
				
					<rect x="322.338" y="25.394" transform="matrix(0.729 -0.6845 0.6845 0.729 73.0577 237.3126)" style="fill:#FFFFFF;" width="27.771" height="2"/>
			</g>
			<g>
				
					<rect x="374.622" y="37.742" transform="matrix(0.3528 -0.9357 0.9357 0.3528 182.3692 393.4763)" style="fill:#FFFFFF;" width="2" height="54.329"/>
			</g>
			<g>
				
					<rect x="357.765" y="53.876" transform="matrix(0.3753 -0.9269 0.9269 0.3753 146.1833 385.0655)" style="fill:#FFFFFF;" width="2" height="60.412"/>
			</g>
			<g>
				
					<rect x="392.908" y="22.01" transform="matrix(0.463 -0.8864 0.8864 0.463 171.8422 373.1944)" style="fill:#FFFFFF;" width="2" height="45.54"/>
			</g>
			<g>
				<polygon style="fill:#FFFFFF;" points="435.604,89.63 395.866,82.818 396.204,80.846 434.1,87.343 446.762,35.175 
					429.042,34.257 429.146,32.26 449.273,33.302 				"/>
			</g>
			<g>
				
					<rect x="422.181" y="50.825" transform="matrix(0.0695 -0.9976 0.9976 0.0695 326.5627 484.8568)" style="fill:#FFFFFF;" width="2" height="33.108"/>
			</g>
			<g>
				
					<rect x="419.859" y="76.885" transform="matrix(0.1889 -0.982 0.982 0.1889 271.7985 484.8315)" style="fill:#FFFFFF;" width="19.054" height="2.001"/>
			</g>
			<g>
				
					<rect x="405.628" y="74.799" transform="matrix(0.2622 -0.965 0.965 0.2622 232.8622 456.1875)" style="fill:#FFFFFF;" width="18.314" height="2"/>
			</g>
			<g>
				<polygon style="fill:#FFFFFF;" points="390.791,506.673 271.784,380.703 222.755,329.626 224.198,328.241 273.232,379.324 
					392.244,505.3 				"/>
			</g>
			<g>
				
					<rect x="360.639" y="465.424" transform="matrix(0.7713 -0.6365 0.6365 0.7713 -210.4086 347.3481)" style="fill:#FFFFFF;" width="34.871" height="2.001"/>
			</g>
			<g>
				
					<rect x="323.64" y="427.493" transform="matrix(0.7908 -0.6121 0.6121 0.7908 -191.5485 296.6029)" style="fill:#FFFFFF;" width="28.898" height="2.001"/>
			</g>
			<g>
				
					<rect x="390.851" y="445.553" transform="matrix(0.8007 -0.5991 0.5991 0.8007 -207.1632 329.6913)" style="fill:#FFFFFF;" width="2.001" height="61.2"/>
			</g>
			<g>
				<polygon style="fill:#FFFFFF;" points="488.409,599.921 446.683,376.736 451.732,361.063 453.637,361.676 448.741,376.867 
					490.376,599.554 				"/>
			</g>
			<g>
				
					<rect x="440.64" y="538.654" transform="matrix(0.7904 -0.6126 0.6126 0.7904 -231.1576 403.704)" style="fill:#FFFFFF;" width="67.466" height="1.999"/>
			</g>
			<g>
				
					<rect x="464.6" y="574.32" transform="matrix(0.8042 -0.5944 0.5944 0.8042 -247.0253 400.7931)" style="fill:#FFFFFF;" width="40.385" height="2.001"/>
			</g>
			<g>
				
					<rect x="467.517" y="488.23" transform="matrix(0.8293 -0.5588 0.5588 0.8293 -190.4421 354.9582)" style="fill:#FFFFFF;" width="36.647" height="1.999"/>
			</g>
			<g>
				
					<rect x="442.119" y="413.949" transform="matrix(0.7903 -0.6127 0.6127 0.7903 -186.1449 366.9933)" style="fill:#FFFFFF;" width="1.999" height="83.024"/>
			</g>
			<g>
				<polygon style="fill:#FFFFFF;" points="241.24,546.421 240.835,546.177 126.185,477.01 127.218,475.297 241.463,544.22 
					304.381,521.915 304.737,522.063 345.403,539.063 344.632,540.909 304.322,524.058 				"/>
			</g>
			<g>
				<polygon style="fill:#FFFFFF;" points="109.281,559.676 88.146,546.163 89.223,544.478 108.754,556.965 154.387,492.769 
					156.017,493.927 				"/>
			</g>
			<g>
				
					<rect x="126.88" y="488.428" transform="matrix(0.4988 -0.8667 0.8667 0.4988 -373.0622 363.6385)" style="fill:#FFFFFF;" width="2.001" height="31.902"/>
			</g>
			<g>
				
					<rect x="116.546" y="504.685" transform="matrix(0.5006 -0.8657 0.8657 0.5006 -391.4593 361.4688)" style="fill:#FFFFFF;" width="1.999" height="30.634"/>
			</g>
			<g>
				
					<rect x="106.334" y="520.974" transform="matrix(0.4757 -0.8796 0.8796 0.4757 -414.8588 375.2508)" style="fill:#FFFFFF;" width="2" height="29.276"/>
			</g>
			<g>
				<polygon style="fill:#FFFFFF;" points="412.671,671.839 412.407,669.856 447.526,665.169 500.796,652.182 501.271,654.125 
					447.844,667.145 				"/>
			</g>
			<g>
				<polygon style="fill:#FFFFFF;" points="501.033,678.32 475.035,678.32 445.609,657.639 446.76,656.002 475.668,676.32 
					501.033,676.32 				"/>
			</g>
			<g>
				
					<rect x="485.269" y="629.736" transform="matrix(0.8005 -0.5994 0.5994 0.8005 -279.4739 421.9584)" style="fill:#FFFFFF;" width="17.513" height="2.001"/>
			</g>
			<g>
				<polygon style="fill:#FFFFFF;" points="382.026,203.488 381.009,201.766 422.807,177.087 379.461,105.366 381.172,104.332 
					425.563,177.783 				"/>
			</g>
			<g>
				
					<rect x="357.752" y="143.398" transform="matrix(0.818 -0.5753 0.5753 0.818 -14.039 244.4299)" style="fill:#FFFFFF;" width="42.912" height="2"/>
			</g>
			<g>
				
					<rect x="370.773" y="123.568" transform="matrix(0.9027 -0.4304 0.4304 0.9027 -22.0746 173.1778)" style="fill:#FFFFFF;" width="1.999" height="23.633"/>
			</g>
			<g>
				<polygon style="fill:#FFFFFF;" points="500.448,149.381 484.132,137.608 391.376,124.373 391.659,122.394 484.903,135.698 
					501.618,147.759 				"/>
			</g>
			<g>
				
					<rect x="469.435" y="133.403" transform="matrix(0.7074 -0.7069 0.7069 0.7074 47.7911 384.2413)" style="fill:#FFFFFF;" width="37.016" height="2"/>
			</g>
			<g>
				
					<rect x="483.425" y="153.499" transform="matrix(0.9394 -0.3428 0.3428 0.9394 -23.0803 178.4042)" style="fill:#FFFFFF;" width="19.518" height="2"/>
			</g>
			<g>
				<rect x="443.352" y="130.922" style="fill:#FFFFFF;" width="2" height="25.822"/>
			</g>
			<g>
				
					<rect x="424.133" y="175.294" transform="matrix(0.996 -0.0898 0.0898 0.996 -14.0706 39.9557)" style="fill:#FFFFFF;" width="25.436" height="2"/>
			</g>
			<g>
				
					<rect x="477.166" y="171.653" transform="matrix(0.9984 -0.0557 0.0557 0.9984 -8.8516 27.4911)" style="fill:#FFFFFF;" width="23.886" height="2"/>
			</g>
			<g>
				<polygon style="fill:#FFFFFF;" points="421.067,278.289 419.302,277.352 428.005,260.971 425.507,212.321 440.945,175.456 
					442.791,176.229 427.528,212.674 430.03,261.42 				"/>
			</g>
			<g>
				
					<rect x="382.19" y="203.642" transform="matrix(0.9947 -0.1025 0.1025 0.9947 -18.7053 45.4386)" style="fill:#FFFFFF;" width="100.759" height="2"/>
			</g>
			<g>
				
					<rect x="482.192" y="174.86" transform="matrix(0.7136 -0.7005 0.7005 0.7136 -1.9576 395.8657)" style="fill:#FFFFFF;" width="2.001" height="50.935"/>
			</g>
			<g>
				
					<rect x="426.633" y="215.54" transform="matrix(0.9901 -0.1406 0.1406 0.9901 -25.8695 66.9249)" style="fill:#FFFFFF;" width="68.118" height="2"/>
			</g>
			<g>
				
					<rect x="446.852" y="219.754" transform="matrix(0.4673 -0.8841 0.8841 0.4673 23.9393 525.2382)" style="fill:#FFFFFF;" width="2" height="45.997"/>
			</g>
			<g>
				
					<rect x="437.435" y="253.649" transform="matrix(0.2179 -0.976 0.976 0.2179 85.9265 633.8227)" style="fill:#FFFFFF;" width="1.999" height="19.298"/>
			</g>
			<g>
				
					<rect x="469.813" y="203.282" transform="matrix(0.5047 -0.8633 0.8633 0.5047 30.3444 522.8604)" style="fill:#FFFFFF;" width="2" height="63.41"/>
			</g>
			<g>
				
					<rect x="486.713" y="253.059" transform="matrix(0.457 -0.8895 0.8895 0.457 43.9671 580.1344)" style="fill:#FFFFFF;" width="20.777" height="2"/>
			</g>
			<g>
				
					<rect x="463.89" y="222.883" transform="matrix(0.527 -0.8499 0.8499 0.527 34.9683 510.5955)" style="fill:#FFFFFF;" width="24.617" height="1.999"/>
			</g>
			<g>
				
					<rect x="424.812" y="243.382" transform="matrix(0.4236 -0.9058 0.9058 0.4236 35.5109 544.5755)" style="fill:#FFFFFF;" width="41.757" height="2.001"/>
			</g>
			<g>
				
					<rect x="458.007" y="182.967" transform="matrix(0.9988 -0.0488 0.0488 0.9988 -9.2002 22.6261)" style="fill:#FFFFFF;" width="2" height="33.716"/>
			</g>
			<g>
				
					<rect x="408.615" y="228.425" transform="matrix(0.0437 -0.999 0.999 0.0437 144.787 645.5938)" style="fill:#FFFFFF;" width="2" height="37.486"/>
			</g>
			<g>
				<polygon style="fill:#FFFFFF;" points="500.618,310.063 433.625,279.482 399.658,278.802 381.415,275.206 381.802,273.243 
					399.959,276.822 434.078,277.49 501.448,308.243 				"/>
			</g>
			<g>
				
					<rect x="391.536" y="298.096" transform="matrix(0.2833 -0.959 0.959 0.2833 -33.3547 611.6548)" style="fill:#FFFFFF;" width="2" height="60.093"/>
			</g>
			<g>
				
					<rect x="417.182" y="309.608" transform="matrix(0.3115 -0.9502 0.9502 0.3115 9.7241 634.6382)" style="fill:#FFFFFF;" width="51.303" height="2"/>
			</g>
			<g>
				
					<rect x="439.68" y="313.906" transform="matrix(0.2858 -0.9583 0.9583 0.2858 27.6056 667.8525)" style="fill:#FFFFFF;" width="44.342" height="3"/>
			</g>
			<g>
				
					<rect x="460.58" y="321.765" transform="matrix(0.2657 -0.9641 0.9641 0.2657 42.3249 701.097)" style="fill:#FFFFFF;" width="41.608" height="2"/>
			</g>
			<g>
				<polygon style="fill:#FFFFFF;" points="501.563,329.891 481.095,323.722 461.499,316.342 462.204,314.471 481.736,321.829 
					502.141,327.977 				"/>
			</g>
			<g>
				
					<rect x="393.141" y="305.433" transform="matrix(0.293 -0.9561 0.9561 0.293 5.6792 620.5454)" style="fill:#FFFFFF;" width="58.581" height="2"/>
			</g>
			<g>
				
					<rect x="367.628" y="300.978" transform="matrix(0.2803 -0.9599 0.9599 0.2803 -7.1662 594.3984)" style="fill:#FFFFFF;" width="50.334" height="2"/>
			</g>
			<g>
				
					<rect x="492.31" y="391.043" transform="matrix(0.1589 -0.9873 0.9873 0.1589 20.2955 823.2143)" style="fill:#FFFFFF;" width="2" height="17.304"/>
			</g>
			<g>
				<g>
					
						<rect x="-2.327" y="147.308" transform="matrix(0.9962 -0.0874 0.0874 0.9962 -12.9609 0.6265)" style="fill:#FFFFFF;" width="6" height="2"/>
				</g>
				<g>
					<path style="fill:#FFFFFF;" d="M16.072,147.958l-0.175-1.992l12.323-1.083l0.175,1.992L16.072,147.958z M40.717,145.792
						l-0.175-1.992l12.323-1.083l0.175,1.992L40.717,145.792z M65.363,143.626l-0.175-1.992l12.323-1.083l0.175,1.992
						L65.363,143.626z M90.008,141.461l-0.175-1.992l12.323-1.083l0.175,1.992L90.008,141.461z M114.654,139.295l-0.175-1.992
						l12.323-1.083l0.175,1.992L114.654,139.295z M139.3,137.129l-0.175-1.992l12.323-1.083l0.175,1.992L139.3,137.129z
						 M163.716,132.85l-1.373-1.454l8.996-8.491l1.373,1.454L163.716,132.85z M181.708,115.867l-1.373-1.454l8.996-8.491
						l1.373,1.454L181.708,115.867z M199.699,98.885l-1.373-1.454l8.996-8.491l1.373,1.454L199.699,98.885z M217.691,81.903
						l-1.373-1.454l8.996-8.491l1.373,1.454L217.691,81.903z M235.683,64.921l-1.373-1.454l8.996-8.491l1.373,1.454L235.683,64.921z
						"/>
				</g>
				<g>
					<polygon style="fill:#FFFFFF;" points="266.44,49.628 257.49,44.337 253.675,47.939 252.302,46.485 257.213,41.85 
						266.161,47.139 269.971,43.533 271.346,44.985 					"/>
				</g>
				<g>
					<path style="fill:#FFFFFF;" d="M279.335,37.422l-1.375-1.452l7.99-7.563l1.375,1.452L279.335,37.422z M295.314,22.297
						l-1.375-1.452l7.99-7.563l1.375,1.452L295.314,22.297z"/>
				</g>
				<g>
					
						<rect x="309.786" y="3.383" transform="matrix(0.7261 -0.6876 0.6876 0.7261 82.6488 216.2579)" style="fill:#FFFFFF;" width="6" height="2"/>
				</g>
			</g>
			<g>
				<path style="fill:#FFFFFF;" d="M329.194,564.191l-10.459-5.883l0.98-1.742l10.459,5.883L329.194,564.191z M308.276,552.426
					l-10.459-5.883l0.98-1.744l10.459,5.883L308.276,552.426z M294.612,534.416l-2.223-11.792l1.965-0.371l2.223,11.792
					L294.612,534.416z M290.167,510.831l-1.789-9.494l3.794-1.38l0.684,1.879l-2.198,0.8l1.475,7.824L290.167,510.831z
					 M357.463,509.781l-9.473-3.914l0.764-1.848l8.486,3.506l1.455-0.973l1.111,1.662L357.463,509.781z M369.782,501.546
					l-1.111-1.662l9.977-6.669l1.111,1.662L369.782,501.546z M336.9,501.284l-11.091-4.583l0.764-1.848l11.091,4.583L336.9,501.284z
					 M304.133,497.735l-0.684-1.879l11.277-4.101l0.684,1.879L304.133,497.735z M389.734,488.208l-1.111-1.662l9.977-6.67
					l1.111,1.662L389.734,488.208z M409.687,474.869l-1.111-1.662l7.771-5.195l-0.389-0.666l1.729-1.008l1.336,2.291
					L409.687,474.869z M409.912,456.98l-1.044-1.791l9.444-6.947l1.186,1.611l-7.997,5.881l0.14,0.238L409.912,456.98z
					 M429.165,442.743l-1.186-1.611l9.667-7.11l1.186,1.611L429.165,442.743z M448.498,428.523l-1.186-1.611l9.667-7.11l1.186,1.611
					L448.498,428.523z M465.555,411.802l-1.816-0.836l5.014-10.902l1.816,0.836L465.555,411.802z M475.583,389.997l-1.816-0.836
					l5.015-10.901l1.816,0.836L475.583,389.997z M485.611,368.193l-1.816-0.836l5.015-10.902l1.816,0.836L485.611,368.193z
					 M495.641,346.389l-1.816-0.836l4.285-9.317l1.816,0.836L495.641,346.389z"/>
			</g>
		</g>
	</g>
</g>
<g id="DESIGNED_BY_FREEPIK">
	<g>
		<g id="XMLID_319_">
			<g id="XMLID_338_">
				<path id="XMLID_346_" style="fill:#F9FBFC;" d="M260.104,465.465c-0.432,0.443-0.803,0.931-1.108,1.453l-0.465-0.241
					c-0.067-0.298-0.349-0.503-0.659-0.466c-0.331,0.039-0.568,0.339-0.529,0.67s0.339,0.568,0.67,0.529
					c0.065-0.008,0.127-0.026,0.184-0.052l0.451,0.234c-0.251,0.554-0.433,1.139-0.539,1.744l0.746,0.132
					c0.23-1.306,0.85-2.507,1.792-3.473L260.104,465.465z"/>
				<path id="XMLID_345_" style="fill:#F9FBFC;" d="M265.592,463.163c-0.171,0-0.341,0.006-0.51,0.017l-0.074-0.626
					c0.188-0.149,0.296-0.389,0.266-0.645c-0.046-0.393-0.402-0.674-0.795-0.628s-0.674,0.402-0.628,0.795
					c0.03,0.254,0.189,0.461,0.405,0.564l0.073,0.624c-0.714,0.116-1.403,0.332-2.06,0.646l0.327,0.684
					c0.934-0.447,1.942-0.673,2.995-0.673c0.496,0,0.993,0.053,1.475,0.158l0.161-0.741
					C266.693,463.222,266.142,463.163,265.592,463.163z"/>
				<path id="XMLID_344_" style="fill:#F9FBFC;" d="M272.194,465.711c0.331-0.04,0.566-0.341,0.525-0.672
					c-0.04-0.331-0.341-0.566-0.672-0.526c-0.309,0.038-0.535,0.304-0.53,0.609l-0.416,0.363c-0.418-0.43-0.89-0.813-1.408-1.139
					l-0.404,0.641c1.134,0.715,2.021,1.726,2.563,2.925l0.691-0.313c-0.251-0.554-0.568-1.072-0.942-1.545l0.402-0.351
					C272.065,465.716,272.129,465.719,272.194,465.711z"/>
				<path id="XMLID_343_" style="fill:#F9FBFC;" d="M265.044,473.372c-0.386,0.023-0.775,0.035-1.157,0.035
					c-0.88,0-1.733-0.061-2.478-0.179c-0.39-0.062-0.846-0.155-1.27-0.292c1.046,1.861,3.069,3.125,5.388,3.125
					c2.855,0,5.262-1.916,5.95-4.504c-0.682,0.449-1.505,0.825-2.459,1.123C267.839,473.047,266.464,473.286,265.044,473.372z"/>
				<path id="XMLID_339_" style="fill:#F9FBFC;" d="M265.592,464.68c-3.352,0-6.08,2.666-6.08,5.943
					c0,0.426,0.046,0.849,0.137,1.261c0.674,0.483,2.706,0.89,5.348,0.731c2.879-0.173,5.297-0.957,6.672-2.159
					c-0.005-0.195-0.021-0.39-0.045-0.582C271.244,466.913,268.65,464.68,265.592,464.68z M263.432,471.194
					c-1.02,0-1.85-0.83-1.85-1.85c0-1.02,0.83-1.85,1.85-1.85c1.02,0,1.85,0.83,1.85,1.85
					C265.282,470.365,264.452,471.194,263.432,471.194z M268.17,470.286c-0.75,0-1.36-0.61-1.36-1.36s0.61-1.361,1.36-1.361
					c0.75,0,1.361,0.61,1.361,1.361S268.92,470.286,268.17,470.286z"/>
			</g>
			<path id="XMLID_336_" style="fill:#F9FBFC;" d="M281.595,466.547c-0.295-0.116-0.806-0.309-1.382-0.237
				c-0.551,0.069-0.844,0.341-0.844,1.007v0.866h2.228v1.717h-2.228v5.455h-1.932v-5.455h-1.34v-1.717h1.34v-0.888
				c0-1.68,0.896-2.783,2.568-2.783c0.642,0,1.157,0.122,1.59,0.308L281.595,466.547z"/>
			<path id="XMLID_334_" style="fill:#F9FBFC;" d="M286.298,469.879c-0.177-0.03-0.358-0.046-0.526-0.046
				c-0.896,0-1.51,0.548-1.51,1.614v3.908h-1.932v-7.172h1.873v0.785c0.451-0.673,1.14-0.977,2.021-0.977
				c0.414,0,0.848,0.128,1.094,0.337L286.298,469.879z"/>
			<path id="XMLID_331_" style="fill:#F9FBFC;" d="M293.965,471.757c0,0.222-0.015,0.489-0.037,0.651h-5.085
				c0.207,1.036,0.933,1.488,1.843,1.488c0.622,0,1.295-0.252,1.813-0.688l1.132,1.243c-0.814,0.748-1.85,1.088-3.057,1.088
				c-2.198,0-3.723-1.495-3.723-3.753c0-2.258,1.48-3.797,3.627-3.797C292.544,467.99,293.958,469.522,293.965,471.757z
				 M288.851,471.091h3.175c-0.177-0.918-0.733-1.436-1.562-1.436C289.554,469.655,289.021,470.203,288.851,471.091z"/>
			<path id="XMLID_328_" style="fill:#F9FBFC;" d="M301.618,471.757c0,0.222-0.015,0.489-0.037,0.651h-5.085
				c0.207,1.036,0.932,1.488,1.843,1.488c0.622,0,1.295-0.252,1.813-0.688l1.132,1.243c-0.814,0.748-1.85,1.088-3.057,1.088
				c-2.198,0-3.723-1.495-3.723-3.753c0-2.258,1.48-3.797,3.627-3.797C300.197,467.99,301.611,469.522,301.618,471.757z
				 M296.504,471.091h3.175c-0.178-0.918-0.733-1.436-1.562-1.436C297.207,469.655,296.674,470.203,296.504,471.091z"/>
			<path id="XMLID_325_" style="fill:#F9FBFC;" d="M309.964,471.764c0,2.154-1.495,3.775-3.471,3.775
				c-0.962,0-1.643-0.378-2.109-0.933v3.708h-1.924v-10.133h1.887v0.792c0.466-0.585,1.155-0.984,2.139-0.984
				C308.469,467.99,309.964,469.61,309.964,471.764z M304.287,471.764c0,1.132,0.747,1.976,1.843,1.976
				c1.14,0,1.85-0.881,1.85-1.976c0-1.095-0.71-1.976-1.85-1.976C305.035,469.788,304.287,470.632,304.287,471.764z"/>
			<path id="XMLID_322_" style="fill:#F9FBFC;" d="M313.068,465.836c0,0.696-0.54,1.229-1.236,1.229
				c-0.696,0-1.229-0.533-1.229-1.229c0-0.696,0.533-1.243,1.229-1.243C312.527,464.592,313.068,465.14,313.068,465.836z
				 M312.809,475.354h-1.932v-7.172h1.932V475.354z"/>
			<path id="XMLID_320_" style="fill:#F9FBFC;" d="M316.032,470.736l2.702-2.554h2.368l-3.479,3.375l3.501,3.797h-2.376
				l-2.716-2.901v2.901H314.1v-10.658h1.932V470.736z"/>
		</g>
		<g>
			<path style="fill:#F9FBFC;" d="M184.412,475.289v-1.055c-0.527,0.718-1.391,1.23-2.388,1.23c-1.846,0-3.149-1.406-3.149-3.706
				c0-2.256,1.289-3.721,3.149-3.721c0.952,0,1.816,0.469,2.388,1.245v-3.765h1.099v9.77H184.412z M184.412,473.37v-3.208
				c-0.395-0.615-1.245-1.143-2.124-1.143c-1.421,0-2.27,1.172-2.27,2.739c0,1.567,0.85,2.724,2.27,2.724
				C183.168,474.483,184.017,473.986,184.412,473.37z"/>
			<path style="fill:#F9FBFC;" d="M186.932,471.744c0-2.051,1.465-3.706,3.486-3.706c2.139,0,3.398,1.67,3.398,3.794v0.279h-5.727
				c0.088,1.333,1.025,2.446,2.549,2.446c0.805,0,1.626-0.322,2.182-0.894l0.527,0.718c-0.703,0.703-1.655,1.084-2.812,1.084
				C188.44,475.465,186.932,473.956,186.932,471.744z M190.403,468.947c-1.509,0-2.256,1.274-2.314,2.358h4.643
				C192.718,470.25,192.015,468.947,190.403,468.947z"/>
			<path style="fill:#F9FBFC;" d="M194.607,474.351l0.571-0.791c0.469,0.542,1.362,1.011,2.329,1.011c1.084,0,1.67-0.513,1.67-1.216
				c0-1.714-4.38-0.659-4.38-3.281c0-1.098,0.952-2.036,2.636-2.036c1.201,0,2.051,0.454,2.622,1.026l-0.513,0.762
				c-0.424-0.513-1.201-0.894-2.109-0.894c-0.967,0-1.567,0.483-1.567,1.113c0,1.552,4.38,0.527,4.38,3.281
				c0,1.187-0.952,2.138-2.783,2.138C196.306,475.465,195.325,475.113,194.607,474.351z"/>
			<path style="fill:#F9FBFC;" d="M201.477,466.471c0-0.41,0.337-0.747,0.732-0.747c0.41,0,0.747,0.337,0.747,0.747
				c0,0.41-0.337,0.732-0.747,0.732C201.814,467.203,201.477,466.881,201.477,466.471z M201.667,475.289v-7.075h1.099v7.075H201.667
				z"/>
			<path style="fill:#F9FBFC;" d="M204.582,477.105l0.556-0.82c0.586,0.703,1.289,0.967,2.3,0.967c1.172,0,2.27-0.571,2.27-2.124
				v-1.011c-0.513,0.718-1.377,1.26-2.373,1.26c-1.845,0-3.149-1.377-3.149-3.662c0-2.27,1.289-3.677,3.149-3.677
				c0.952,0,1.802,0.469,2.373,1.245v-1.069h1.098v6.87c0,2.344-1.641,3.076-3.369,3.076
				C206.237,478.16,205.417,477.926,204.582,477.105z M209.709,473.253v-3.091c-0.381-0.615-1.23-1.143-2.109-1.143
				c-1.421,0-2.27,1.128-2.27,2.695c0,1.553,0.849,2.695,2.27,2.695C208.478,474.41,209.328,473.868,209.709,473.253z"/>
			<path style="fill:#F9FBFC;" d="M217.413,475.289v-4.629c0-1.245-0.63-1.641-1.582-1.641c-0.865,0-1.685,0.527-2.095,1.099v5.17
				h-1.099v-7.075h1.099v1.025c0.498-0.586,1.465-1.201,2.519-1.201c1.48,0,2.256,0.747,2.256,2.285v4.966H217.413z"/>
			<path style="fill:#F9FBFC;" d="M219.932,471.744c0-2.051,1.465-3.706,3.486-3.706c2.139,0,3.398,1.67,3.398,3.794v0.279h-5.727
				c0.088,1.333,1.025,2.446,2.549,2.446c0.806,0,1.626-0.322,2.183-0.894l0.527,0.718c-0.703,0.703-1.655,1.084-2.812,1.084
				C221.441,475.465,219.932,473.956,219.932,471.744z M223.404,468.947c-1.509,0-2.256,1.274-2.314,2.358h4.643
				C225.718,470.25,225.015,468.947,223.404,468.947z"/>
			<path style="fill:#F9FBFC;" d="M233.35,475.289v-1.055c-0.527,0.718-1.392,1.23-2.388,1.23c-1.846,0-3.149-1.406-3.149-3.706
				c0-2.256,1.289-3.721,3.149-3.721c0.952,0,1.817,0.469,2.388,1.245v-3.765h1.098v9.77H233.35z M233.35,473.37v-3.208
				c-0.396-0.615-1.245-1.143-2.124-1.143c-1.421,0-2.27,1.172-2.27,2.739c0,1.567,0.849,2.724,2.27,2.724
				C232.105,474.483,232.954,473.986,233.35,473.37z"/>
			<path style="fill:#F9FBFC;" d="M239.692,475.289v-9.77h1.098v3.765c0.572-0.776,1.421-1.245,2.388-1.245
				c1.845,0,3.149,1.465,3.149,3.721c0,2.299-1.304,3.706-3.149,3.706c-0.996,0-1.86-0.513-2.388-1.23v1.055H239.692z
				 M242.9,474.483c1.436,0,2.285-1.157,2.285-2.724c0-1.568-0.85-2.739-2.285-2.739c-0.864,0-1.728,0.527-2.109,1.143v3.208
				C241.171,473.986,242.036,474.483,242.9,474.483z"/>
			<path style="fill:#F9FBFC;" d="M247.528,477.061c0.161,0.073,0.425,0.117,0.601,0.117c0.483,0,0.805-0.161,1.055-0.747
				l0.469-1.069l-2.959-7.148h1.187l2.358,5.8l2.344-5.8h1.201l-3.545,8.51c-0.425,1.025-1.143,1.421-2.08,1.435
				c-0.234,0-0.601-0.044-0.805-0.103L247.528,477.061z"/>
		</g>
	</g>
</g>
</svg>
